<svg fill="currentColor" height="100" viewBox="0 0 100 100" width="100"><g fill="#000"><path d="m49.7356 29.4532c-12.3457 0-22.575 10.053-22.575 22.575s10.053 22.575 22.575 22.575c12.5221 0 22.575-10.2293 22.575-22.575s-10.2293-22.575-22.575-22.575zm0 37.0371c-7.9365 0-14.4621-6.5256-14.4621-14.4621s6.5256-14.4621 14.4621-14.4621 14.4621 6.5256 14.4621 14.4621-6.5256 14.4621-14.4621 14.4621z"/><path d="m73.1923 34.0387c2.8247 0 5.1146-2.2899 5.1146-5.1146 0-2.8248-2.2899-5.1147-5.1146-5.1147-2.8248 0-5.1147 2.2899-5.1147 5.1147 0 2.8247 2.2899 5.1146 5.1147 5.1146z"/><path d="m86.4199 15.6966c-4.5856-4.7619-11.1112-7.23102-18.5186-7.23102h-36.3315c-15.3439 0-25.57322 10.22932-25.57322 25.57322v36.1552c0 7.5837 2.46914 14.1093 7.40742 18.8712 4.7619 4.5856 11.1111 6.8783 18.3421 6.8783h35.9789c7.5838 0 13.933-2.4691 18.5185-6.8783 4.7619-4.5855 7.231-11.1111 7.231-18.6949v-36.3315c0-7.4074-2.4691-13.7566-7.0546-18.3422zm-.7055 54.6737c0 5.4674-1.94 9.8766-5.1146 12.8748-3.1746 2.9983-7.5838 4.5856-12.8748 4.5856h-35.9789c-5.291 0-9.7001-1.5873-12.8747-4.5856-3.1746-3.1746-4.7619-7.5838-4.7619-13.0511v-36.1552c0-5.291 1.5873-9.7002 4.7619-12.8748 2.9982-2.9982 7.5837-4.5856 12.8747-4.5856h36.3316c5.291 0 9.7002 1.5874 12.8748 4.762 2.9982 3.1746 4.7619 7.5837 4.7619 12.6984z"/></g></svg>