<svg height="24" viewBox="0 0 100 100" width="24"<path d="M225.813,367.16l-18.782-51.031c0,0-30.5,34.031-76.219,34.031c-40.468,0-69.218-35.219-69.218-91.523  c0-72.125,36.343-97.953,72.125-97.953c51.607,0,68.029,33.453,82.122,76.266l18.75,58.648  c18.782,56.875,53.953,102.625,155.421,102.625c72.736,0,121.986-22.281,121.986-80.906c0-47.508-26.969-72.164-77.408-83.898  l-37.531-8.203c-25.813-5.859-33.438-16.406-33.438-34.031c0-19.922,15.828-31.672,41.656-31.672  c28.125,0,43.373,10.578,45.734,35.781l58.643-7.031c-4.689-52.798-41.033-74.484-100.861-74.484  c-52.797,0-104.391,19.922-104.391,83.859c0,39.891,19.346,65.109,68.031,76.836l39.875,9.375  c29.908,7.031,39.875,19.375,39.875,36.375c0,21.688-21.125,30.5-60.998,30.5c-59.219,0-83.859-31.094-97.938-73.906l-19.346-58.633  c-24.624-76.25-63.937-104.406-141.937-104.406C45.751,113.777,0,168.324,0,260.998c0,89.162,45.751,137.225,127.874,137.225  C194.124,398.223,225.813,367.16,225.813,367.16L225.813,367.16z" /></svg>