<svg fill="none" height="100" viewBox="0 0 100 100" width="100"><path clip-rule="evenodd" d="m50 6.25c-24.1602 0-43.75 20.0781-43.75 44.8633 0 19.8242 12.5391 36.6211 29.9219 42.5586 2.1875.4101 2.9883-.9766 2.9883-2.168 0-1.0742-.0391-3.8867-.0586-7.6367-12.168 2.7148-14.7461-6.0156-14.7461-6.0156-1.9922-5.1758-4.8633-6.5625-4.8633-6.5625-3.9649-2.793.293-2.7344.293-2.7344 4.3945.3125 6.6992 4.6289 6.6992 4.6289 3.9062 6.8555 10.2344 4.8828 12.7344 3.7305.3906-2.8907 1.5234-4.8828 2.7734-5.9961-9.707-1.1328-19.9219-4.9805-19.9219-22.168 0-4.9023 1.6992-8.9062 4.4922-12.0312-.4492-1.1329-1.9531-5.7032.4297-11.875 0 0 3.6719-1.211 12.0312 4.5898 3.4961-.9961 7.2266-1.4844 10.9571-1.5039 3.7109.0195 7.4609.5078 10.957 1.5039 8.3594-5.8008 12.0117-4.5898 12.0117-4.5898 2.3828 6.1718.8789 10.7421.4297 11.875 2.793 3.1445 4.4922 7.1484 4.4922 12.0312 0 17.2266-10.2344 21.0156-19.9805 22.1289 1.5625 1.3867 2.9688 4.1211 2.9688 8.3008 0 5.9961-.0586 10.8398-.0586 12.3047 0 1.1914.7812 2.5976 3.0078 2.1484 17.4219-5.918 29.9414-22.7148 29.9414-42.5195 0-24.7852-19.5898-44.8633-43.75-44.8633z" fill="#000" fill-rule="evenodd"/></svg>